<svg id="Capa_1" enable-background="new 0 0 512 512" height="512" viewBox="0 0 512 512" width="512" xmlns="http://www.w3.org/2000/svg"><g><path d="m452 192c-15.355 0-29.376 5.805-40 15.327-10.624-9.522-24.645-15.327-40-15.327-12.328 0-23.798 3.741-33.339 10.143-17.296-29.946-49.664-50.143-86.661-50.143s-69.365 20.197-86.661 50.143c-9.541-6.402-21.011-10.143-33.339-10.143-1.982 0-3.941.102-5.874.291 22.332-43.612 69.14-72.291 125.874-72.291 33.084 0 60-26.916 60-60s-26.916-60-60-60c-143.664 0-252 108.336-252 252 0 145.794 110.691 260 252 260 143.694 0 260-116.286 260-260 0-33.084-26.916-60-60-60zm-200 0c33.084 0 60 26.916 60 60s-26.916 60-60 60-60-26.916-60-60 26.916-60 60-60zm-120 40c11.028 0 20 8.972 20 20 0 55.14 44.86 100 100 100s100-44.86 100-100c0-11.028 8.972-20 20-20s20 8.972 20 20c0 77.196-62.804 140-140 140s-140-62.804-140-140c0-11.028 8.972-20 20-20zm120 240c-118.878 0-212-96.636-212-220 0-120.86 91.14-212 212-212 11.028 0 20 8.972 20 20s-8.972 20-20 20c-99.369 0-180 72.785-180 172 0 99.252 80.748 180 180 180s180-80.748 180-180c0-11.028 8.972-20 20-20s20 8.972 20 20c0 121.309-98.691 220-220 220z"/></g></svg>